<?xml version="1.0" ?><!DOCTYPE svg  PUBLIC '-//W3C//DTD SVG 1.1//EN'  'http://www.w3.org/Graphics/SVG/1.1/DTD/svg11.dtd'><svg enable-background="new 0 0 512 512" height="512px" version="1.1" viewBox="0 0 512 512" width="512px" xml:space="preserve" xmlns="http://www.w3.org/2000/svg" xmlns:xlink="http://www.w3.org/1999/xlink"><g id="Layer_1"/><g id="Colors"><rect fill="#FFFFFF" height="267" stroke="#231F20" stroke-miterlimit="10" width="267" x="-779" y="-512"/><rect fill="#FBD50A" height="267" stroke="#231F20" stroke-miterlimit="10" width="267" x="-779" y="-244"/><rect fill="#C61934" height="267" stroke="#231F20" stroke-miterlimit="10" width="267" x="-779" y="23"/><rect fill="#96212C" height="267" stroke="#231F20" stroke-miterlimit="10" width="267" x="-779" y="290"/><rect fill="#202C3C" height="267" stroke="#231F20" stroke-miterlimit="10" width="267" x="-779" y="557"/><rect fill="#ED1C24" height="267" stroke="#231F20" stroke-miterlimit="10" width="267" x="-779" y="825"/></g><g id="Icon"><ellipse cx="258.375" cy="255.649" fill="#FBD50A" rx="254.776" ry="252.774"/></g><g id="Layer_4"><path d="M109,371V152.333c0-6.627,5.373-12,12-12h274.667c6.627,0,12,5.373,12,12V371" fill="#F2F2F2"/><path d="M109,371V155.333c0-6.627,5.373-12,12-12h268.667c6.627,0,12,5.373,12,12V371" fill="#202C3C"/><path d="M109,164v-11.667c0-6.627,5.373-12,12-12h274.667c6.627,0,12,5.373,12,12V164" fill="#FFFFFF"/><circle cx="118.625" cy="152.125" fill="#C61934" r="3.5"/><circle cx="128.625" cy="152.125" fill="#FBD50A" r="3.5"/><circle cx="138.625" cy="152.125" fill="#39B54A" r="3.5"/><text fill="#39B54A" font-family="'MyriadPro-Cond'" font-size="36" transform="matrix(1 0 0 1 118.625 199.6667)"/><rect fill="#39B54A" height="32" width="16.5" x="208.625" y="171.667"/></g></svg>